<svg xmlns="http://www.w3.org/2000/svg" version="1.1" xmlns:xlink="http://www.w3.org/1999/xlink" xmlns:svgjs="http://svgjs.dev/svgjs" width="1495" height="760" preserveAspectRatio="none" viewBox="0 0 1495 760"><g mask="url(&quot;#SvgjsMask1454&quot;)" fill="none"><rect width="1495" height="760" x="0" y="0" fill="url(&quot;#SvgjsLinearGradient1455&quot;)"></rect><path d="M1140.186,357.609C1202.319,360.461,1273.643,352.726,1303.894,298.38C1333.693,244.845,1297.128,184,1266.294,131.054C1235.756,78.616,1200.867,16.975,1140.186,17.274C1079.771,17.572,1044.19,78.739,1016.213,132.287C990.906,180.725,974.246,236.576,1000.591,284.458C1027.733,333.789,1083.94,355.027,1140.186,357.609" fill="rgba(79, 110, 143, 0.41)" class="triangle-float1"></path><path d="M197.099,847.166C245.523,848.43,298.612,841.678,324.482,800.725C351.702,757.636,344.073,701.102,316.41,658.296C290.96,618.914,243.965,602.1,197.099,603.611C153.041,605.031,113.363,627.95,90.407,665.582C66.379,704.971,57.36,754.584,80.734,794.364C103.861,833.725,151.462,845.975,197.099,847.166" fill="rgba(79, 110, 143, 0.41)" class="triangle-float3"></path><path d="M990.095,587.555C1028.165,586.783,1056.452,556.033,1074.538,522.524C1091.57,490.967,1096.552,453.705,1079.309,422.263C1061.419,389.64,1027.3,368.285,990.095,368.543C953.306,368.798,921.343,391.596,903.002,423.488C884.72,455.278,882.307,493.684,899.502,526.075C917.842,560.624,950.988,588.348,990.095,587.555" fill="rgba(79, 110, 143, 0.41)" class="triangle-float1"></path><path d="M1257.084,498.392C1304.842,496.077,1346.782,468.701,1370.348,427.098C1393.562,386.117,1394.93,336.496,1372.139,295.278C1348.581,252.673,1305.767,222.64,1257.084,222.258C1207.782,221.871,1164.783,251.509,1138.86,293.448C1111.343,337.965,1096.912,393.749,1123.063,439.082C1149.226,484.437,1204.785,500.927,1257.084,498.392" fill="rgba(79, 110, 143, 0.41)" class="triangle-float1"></path><path d="M850.386,1006.113C922.175,1008.67,990.131,969.841,1025.515,907.325C1060.405,845.681,1054.093,770.395,1018.445,709.186C983.045,648.404,920.615,602.691,850.386,606.625C785.127,610.28,742.914,668.731,712.052,726.347C683.371,779.892,668.689,841.123,695.613,895.573C725.731,956.484,782.479,1003.694,850.386,1006.113" fill="rgba(79, 110, 143, 0.41)" class="triangle-float2"></path><path d="M1430.95,1026.252C1502.073,1024.007,1556.292,969.983,1591.203,907.977C1625.324,847.373,1644.632,772.287,1606.792,713.933C1571.088,658.873,1496.515,658.08,1430.95,660.845C1371.703,663.344,1312.841,679.025,1279.05,727.756C1239.799,784.362,1220.922,857.287,1252.163,918.678C1285.972,985.115,1356.442,1028.604,1430.95,1026.252" fill="rgba(79, 110, 143, 0.41)" class="triangle-float1"></path><path d="M209.136,663.209C247.455,661.946,281.278,640.407,300.807,607.414C320.741,573.737,324.862,532.813,306.9,498.044C287.365,460.231,251.686,430.936,209.136,429.97C165.081,428.97,124.869,454.958,103.368,493.423C82.374,530.982,83.616,577.301,106.367,613.822C127.906,648.398,168.422,664.551,209.136,663.209" fill="rgba(79, 110, 143, 0.41)" class="triangle-float3"></path><path d="M1495.643,629.302C1566.813,628.598,1643.071,613.035,1679.106,551.658C1715.48,489.704,1695.607,413.232,1658.681,351.605C1622.958,291.986,1565.06,242.03,1495.643,245.474C1430.351,248.713,1392.561,310.762,1358.409,366.503C1321.818,426.224,1273.363,493.267,1305.783,555.351C1339.478,619.877,1422.853,630.022,1495.643,629.302" fill="rgba(79, 110, 143, 0.41)" class="triangle-float2"></path><path d="M1326.085,544.566C1393.962,546.748,1453.924,502.027,1486.358,442.361C1517.362,385.326,1514.155,316.183,1480.366,260.753C1447.936,207.552,1388.39,179.016,1326.085,179.441C1264.559,179.861,1205.726,209.295,1175.407,262.833C1145.491,315.659,1154.084,379.068,1182.715,432.602C1213.365,489.911,1261.129,542.478,1326.085,544.566" fill="rgba(79, 110, 143, 0.41)" class="triangle-float1"></path><path d="M1482.136,544.796C1529.16,546.613,1581.297,541.673,1606.738,502.084C1633.733,460.076,1625.346,405.103,1599.272,362.517C1574.377,321.856,1529.76,296.321,1482.136,298.576C1437.878,300.672,1404.415,334.114,1382.757,372.768C1361.684,410.378,1351.604,455.727,1373.169,493.057C1394.727,530.374,1439.072,543.132,1482.136,544.796" fill="rgba(79, 110, 143, 0.41)" class="triangle-float1"></path><path d="M1326.665,361.667C1356.29,362.953,1387.395,353.614,1402.6,328.156C1418.122,302.169,1413.576,269.048,1397.183,243.601C1382.093,220.177,1354.511,209.294,1326.665,210.283C1300.589,211.209,1277.484,225.793,1264.317,248.319C1251.018,271.071,1248.648,298.934,1261.349,322.025C1274.505,345.943,1299.394,360.483,1326.665,361.667" fill="rgba(79, 110, 143, 0.41)" class="triangle-float2"></path></g><defs><mask id="SvgjsMask1454"><rect width="1495" height="760" fill="#ffffff"></rect></mask><linearGradient x1="12.29%" y1="124.18%" x2="87.71%" y2="-24.18%" gradientUnits="userSpaceOnUse" id="SvgjsLinearGradient1455"><stop stop-color="#0e2a47" offset="0"></stop><stop stop-color="rgba(46, 56, 68, 1)" offset="1"></stop></linearGradient><style>
                @keyframes float1 {
                    0%{transform: translate(0, 0)}
                    50%{transform: translate(-10px, 0)}
                    100%{transform: translate(0, 0)}
                }

                .triangle-float1 {
                    animation: float1 5s infinite;
                }

                @keyframes float2 {
                    0%{transform: translate(0, 0)}
                    50%{transform: translate(-5px, -5px)}
                    100%{transform: translate(0, 0)}
                }

                .triangle-float2 {
                    animation: float2 4s infinite;
                }

                @keyframes float3 {
                    0%{transform: translate(0, 0)}
                    50%{transform: translate(0, -10px)}
                    100%{transform: translate(0, 0)}
                }

                .triangle-float3 {
                    animation: float3 6s infinite;
                }
            </style></defs></svg>