<svg xmlns="http://www.w3.org/2000/svg" version="1.1" xmlns:xlink="http://www.w3.org/1999/xlink" xmlns:svgjs="http://svgjs.dev/svgjs" width="1440" height="560" preserveAspectRatio="none" viewBox="0 0 1440 560"><g mask="url(&quot;#SvgjsMask1268&quot;)" fill="none"><rect width="1440" height="560" x="0" y="0" fill="url(&quot;#SvgjsLinearGradient1269&quot;)"></rect><path d="M1065.332,422.323C1111.595,422.837,1147.163,386.649,1170.425,346.656C1193.848,306.386,1206.948,257.994,1184.733,217.045C1161.645,174.486,1113.644,149.728,1065.332,152.937C1021.505,155.848,991.089,192.433,970.572,231.271C951.67,267.053,946.226,308.111,964.208,344.365C984.478,385.232,1019.717,421.816,1065.332,422.323" fill="rgba(79, 110, 143, 0.41)" class="triangle-float3"></path><path d="M209.807,315.615C246.047,317.726,275.605,288.809,292.625,256.745C308.532,226.777,307.936,191.448,291.462,161.788C274.466,131.187,244.804,108.356,209.807,107.639C173.639,106.898,137.852,125.73,122.146,158.319C107.896,187.886,126.192,219.311,142.17,247.981C158.806,277.831,175.692,313.628,209.807,315.615" fill="rgba(79, 110, 143, 0.41)" class="triangle-float2"></path><path d="M1329.451,537.828C1363.001,539.434,1398.145,525.452,1413.416,495.536C1427.762,467.433,1411.758,435.957,1395.149,409.129C1379.712,384.193,1358.779,359.976,1329.451,359.908C1300.036,359.84,1277.492,383.1,1263.224,408.823C1249.458,433.643,1245.378,462.866,1258.34,488.115C1272.497,515.691,1298.488,536.346,1329.451,537.828" fill="rgba(79, 110, 143, 0.41)" class="triangle-float3"></path><path d="M708.606,638.449C744.346,639.293,773.489,610.684,788.544,578.258C801.484,550.387,792.227,519.291,776.06,493.16C760.911,468.675,737.399,448.935,708.606,449.055C679.99,449.174,656.594,469.034,642.116,493.717C627.433,518.75,622.833,548.26,634.948,574.631C649.483,606.27,673.798,637.627,708.606,638.449" fill="rgba(79, 110, 143, 0.41)" class="triangle-float2"></path><path d="M769.868,481.095C790.237,480.351,809.483,470.871,819.634,453.196C829.747,435.587,827.87,414.4,818.528,396.37C808.256,376.544,792.19,356.592,769.868,357.148C748.09,357.691,735.955,379.73,725.235,398.695C714.762,417.223,703.245,438.362,713.382,457.076C723.826,476.358,747.954,481.895,769.868,481.095" fill="rgba(79, 110, 143, 0.41)" class="triangle-float1"></path><path d="M1312.686,484.178C1345.573,484.849,1371.35,459.834,1388.294,431.64C1405.893,402.354,1419.286,365.871,1401.206,336.88C1383.738,308.87,1345.686,309.577,1312.686,310.399C1281.681,311.171,1247.36,314.461,1231.488,341.107C1215.36,368.181,1226.686,401.25,1242.241,428.658C1258.058,456.527,1280.649,483.524,1312.686,484.178" fill="rgba(79, 110, 143, 0.41)" class="triangle-float2"></path><path d="M385.196,228.959C415.06,228.736,441.89,213.151,458.109,188.074C476.044,160.345,487.821,124.855,470.854,96.523C454.182,68.684,417.597,64.551,385.196,66.321C356.388,67.895,329.355,80.433,314.348,105.074C298.701,130.765,295.437,163.065,310.37,189.178C325.4,215.46,354.921,229.185,385.196,228.959" fill="rgba(79, 110, 143, 0.41)" class="triangle-float2"></path><path d="M414.039,215.271C451.369,214.155,489.857,206.018,510.449,174.861C533.125,140.551,536.239,96.115,516.713,59.92C496.211,21.915,457.174,-5.865,414.039,-3.856C373.5,-1.968,347.021,33.644,326.694,68.77C306.318,103.98,286.268,145.997,307.101,180.939C327.649,215.404,373.931,216.47,414.039,215.271" fill="rgba(79, 110, 143, 0.41)" class="triangle-float2"></path><path d="M393.185,543.575C411.925,542.539,430.643,537.491,441.015,521.848C452.556,504.444,455.903,482.117,446.198,463.626C435.838,443.889,415.462,429.937,393.185,430.721C371.977,431.467,357.149,448.927,346.262,467.142C334.98,486.018,323.719,508.956,335.224,527.697C346.457,545.994,371.748,544.76,393.185,543.575" fill="rgba(79, 110, 143, 0.41)" class="triangle-float1"></path><path d="M1404.163,86.263C1425.677,86.515,1445.954,76.314,1457.388,58.089C1469.608,38.612,1472.543,14.393,1462.109,-6.096C1450.663,-28.572,1429.362,-47.518,1404.163,-46.426C1380.19,-45.387,1364.947,-22.932,1354.306,-1.425C1345.069,17.245,1342.761,38.758,1353.057,56.866C1363.468,75.177,1383.1,86.016,1404.163,86.263" fill="rgba(79, 110, 143, 0.41)" class="triangle-float1"></path><path d="M1356.111,222.404C1382.856,224.778,1413.004,220.737,1427.167,197.926C1441.867,174.251,1435.657,143.012,1419.508,120.3C1405.594,100.731,1380.116,97.463,1356.111,97.992C1333.312,98.495,1308.904,103.314,1297.38,122.993C1285.764,142.829,1292.298,167.203,1303.991,186.994C1315.442,206.376,1333.687,220.414,1356.111,222.404" fill="rgba(79, 110, 143, 0.41)" class="triangle-float1"></path></g><defs><mask id="SvgjsMask1268"><rect width="1440" height="560" fill="#ffffff"></rect></mask><linearGradient x1="15.28%" y1="139.29%" x2="84.72%" y2="-39.29%" gradientUnits="userSpaceOnUse" id="SvgjsLinearGradient1269"><stop stop-color="#0e2a47" offset="0"></stop><stop stop-color="rgba(46, 56, 68, 1)" offset="1"></stop></linearGradient><style>
                @keyframes float1 {
                    0%{transform: translate(0, 0)}
                    50%{transform: translate(-10px, 0)}
                    100%{transform: translate(0, 0)}
                }

                .triangle-float1 {
                    animation: float1 5s infinite;
                }

                @keyframes float2 {
                    0%{transform: translate(0, 0)}
                    50%{transform: translate(-5px, -5px)}
                    100%{transform: translate(0, 0)}
                }

                .triangle-float2 {
                    animation: float2 4s infinite;
                }

                @keyframes float3 {
                    0%{transform: translate(0, 0)}
                    50%{transform: translate(0, -10px)}
                    100%{transform: translate(0, 0)}
                }

                .triangle-float3 {
                    animation: float3 6s infinite;
                }
            </style></defs></svg>