<svg xmlns="http://www.w3.org/2000/svg" version="1.1" xmlns:xlink="http://www.w3.org/1999/xlink" xmlns:svgjs="http://svgjs.dev/svgjs" width="1495" height="760" preserveAspectRatio="none" viewBox="0 0 1495 760"><g mask="url(&quot;#SvgjsMask1554&quot;)" fill="none"><rect width="1495" height="760" x="0" y="0" fill="url(&quot;#SvgjsLinearGradient1555&quot;)"></rect><path d="M433.982,924.669C501.241,925.306,565.902,899.398,604.115,844.045C648.686,779.484,679.649,694.559,639.282,627.289C599.597,561.155,511.061,557.796,433.982,560.526C363.074,563.037,288.345,579.809,252.415,640.991C216.123,702.789,230.708,780.512,269.342,840.874C304.922,896.464,367.984,924.044,433.982,924.669" fill="rgba(100, 120, 131, 0.2)" class="triangle-float3"></path><path d="M161.01,708.759C223.458,709.503,283.438,681.439,316.175,628.255C350.539,572.427,356.352,501.589,323.424,444.901C290.631,388.445,226.277,362.83,161.01,361.125C92.105,359.325,17.109,376,-16.799,436.012C-50.336,495.367,-25.109,567.521,12.122,624.631C45.488,675.812,99.917,708.031,161.01,708.759" fill="rgba(100, 120, 131, 0.2)" class="triangle-float1"></path><path d="M904.279,181.443C945.347,182.76,987.54,170.495,1009.954,136.058C1034.348,98.578,1038.624,49.1,1015.215,10.997C992.687,-25.673,947.305,-34.98,904.279,-35.951C858.912,-36.975,806.815,-33.623,784.313,5.784C761.914,45.009,784.25,92.336,809.725,129.637C831.449,161.446,865.78,180.208,904.279,181.443" fill="rgba(100, 120, 131, 0.2)" class="triangle-float3"></path><path d="M1414.153,650.923C1457.003,650.861,1488.867,617.107,1511.317,580.609C1535.252,541.696,1557.825,494.312,1534.73,454.895C1511.779,415.724,1459.534,413.461,1414.153,414.775C1371.775,416.002,1326.575,424.994,1305.09,461.543C1283.384,498.468,1295.128,543.772,1316.503,580.889C1337.928,618.093,1371.221,650.985,1414.153,650.923" fill="rgba(100, 120, 131, 0.2)" class="triangle-float2"></path><path d="M467.184,175.013C499.211,174.917,519.133,143.058,533.067,114.221C544.924,89.684,545.709,62.266,533.418,37.943C519.638,10.673,497.648,-13.817,467.184,-16.159C432.849,-18.799,396.222,-4.494,380.601,26.195C365.908,55.06,384.329,86.62,400.617,114.616C416.766,142.372,435.072,175.109,467.184,175.013" fill="rgba(100, 120, 131, 0.2)" class="triangle-float3"></path><path d="M870.537,269.684C936.096,270.504,1008.892,269.931,1045.986,215.869C1087.028,156.052,1084.504,74.783,1046.78,12.82C1010.417,-46.908,940.402,-75.267,870.537,-72.313C805.727,-69.573,751.385,-29.118,718.347,26.706C684.586,83.752,667.341,155.396,702.528,211.574C736.242,265.4,807.029,268.89,870.537,269.684" fill="rgba(100, 120, 131, 0.2)" class="triangle-float1"></path><path d="M1511.148,811.513C1572.463,813.03,1623.002,766.072,1650.501,711.248C1675.26,661.886,1668.609,603.575,1638.745,557.124C1611.283,514.409,1561.895,496.357,1511.148,494.498C1456.11,492.482,1394.893,500.095,1366.259,547.141C1336.835,595.485,1356.051,655.005,1383.25,704.634C1411.869,756.854,1451.618,810.04,1511.148,811.513" fill="rgba(100, 120, 131, 0.2)" class="triangle-float2"></path><path d="M959.988,436.892C1023.888,438.243,1082.642,400.087,1112.676,343.669C1141.075,290.322,1129.661,227.337,1099.389,175.031C1069.181,122.836,1020.288,80.68,959.988,79.845C898.41,78.992,843.448,117.133,813.733,171.074C785.044,223.153,789.422,285.349,818.084,337.442C847.927,391.682,898.094,435.584,959.988,436.892" fill="rgba(100, 120, 131, 0.2)" class="triangle-float2"></path><path d="M1441.469,428.194C1475.853,427.068,1505.012,406.473,1523.192,377.267C1542.662,345.989,1554.611,307.297,1536.802,275.044C1518.539,241.968,1479.134,226.282,1441.469,229.264C1408.21,231.897,1386.204,259.657,1369.129,288.319C1351.474,317.954,1334.071,352.302,1349.917,382.942C1366.678,415.35,1405.003,429.388,1441.469,428.194" fill="rgba(100, 120, 131, 0.2)" class="triangle-float3"></path><path d="M80.906,513.519C120.319,514.684,164.199,513.22,186.221,480.513C210.26,444.809,206.354,396.976,184.232,360.054C162.711,324.137,122.701,302.221,80.906,304.745C42.744,307.05,15.822,337.991,-2.85,371.353C-20.97,403.73,-32.984,442.622,-14.151,474.59C4.477,506.209,44.224,512.435,80.906,513.519" fill="rgba(100, 120, 131, 0.2)" class="triangle-float3"></path><path d="M474.334,554.243C498.814,553.013,513.232,528.958,524.047,506.962C533.327,488.087,536.021,466.897,526.503,448.141C515.958,427.362,497.635,409.019,474.334,409C451.009,408.981,433.602,427.81,422.017,448.055C410.528,468.131,404.919,491.685,415.142,512.434C426.584,535.658,448.477,555.542,474.334,554.243" fill="rgba(100, 120, 131, 0.2)" class="triangle-float1"></path></g><defs><mask id="SvgjsMask1554"><rect width="1495" height="760" fill="#ffffff"></rect></mask><linearGradient x1="87.71%" y1="124.18%" x2="12.29%" y2="-24.18%" gradientUnits="userSpaceOnUse" id="SvgjsLinearGradient1555"><stop stop-color="#0e2a47" offset="0"></stop><stop stop-color="rgba(3, 6, 55, 1)" offset="1"></stop></linearGradient><style>
                @keyframes float1 {
                    0%{transform: translate(0, 0)}
                    50%{transform: translate(-10px, 0)}
                    100%{transform: translate(0, 0)}
                }

                .triangle-float1 {
                    animation: float1 5s infinite;
                }

                @keyframes float2 {
                    0%{transform: translate(0, 0)}
                    50%{transform: translate(-5px, -5px)}
                    100%{transform: translate(0, 0)}
                }

                .triangle-float2 {
                    animation: float2 4s infinite;
                }

                @keyframes float3 {
                    0%{transform: translate(0, 0)}
                    50%{transform: translate(0, -10px)}
                    100%{transform: translate(0, 0)}
                }

                .triangle-float3 {
                    animation: float3 6s infinite;
                }
            </style></defs></svg>