<svg xmlns="http://www.w3.org/2000/svg" version="1.1" xmlns:xlink="http://www.w3.org/1999/xlink" xmlns:svgjs="http://svgjs.dev/svgjs" width="1495" height="760" preserveAspectRatio="none" viewBox="0 0 1495 760"><g mask="url(&quot;#SvgjsMask1540&quot;)" fill="none"><rect width="1495" height="760" x="0" y="0" fill="url(&quot;#SvgjsLinearGradient1541&quot;)"></rect><path d="M868.683,362.989C914.894,363.552,957.626,339.229,981.461,299.636C1006.091,258.721,1012.722,206.463,987.212,166.091C963.021,127.805,913.895,118.532,868.683,121.15C828.504,123.477,792.846,144.285,771.763,178.567C749.509,214.752,740.807,259.34,760.569,296.943C781.625,337.009,823.424,362.437,868.683,362.989" fill="rgba(67, 110, 135, 1)" class="triangle-float1"></path><path d="M722.659,844.387C758.029,845.469,782.514,812.679,799.134,781.438C814.54,752.479,819.834,719.009,804.897,689.805C788.536,657.816,758.579,632.763,722.659,631.918C685.436,631.042,649.383,652.126,633.433,685.77C619.125,715.95,637.507,747.883,653.882,776.993C670.749,806.977,688.273,843.335,722.659,844.387" fill="rgba(67, 110, 135, 1)" class="triangle-float1"></path><path d="M1237.24,540.209C1313.854,536.424,1380.152,491.418,1418.354,424.9C1456.391,358.669,1466.494,276.118,1426.158,211.262C1387.625,149.304,1310.197,132.758,1237.24,133.685C1166.284,134.586,1096.827,157.6,1056.454,215.957C1009.488,283.844,982.03,372.369,1022.23,444.47C1063.178,517.913,1153.255,544.358,1237.24,540.209" fill="rgba(67, 110, 135, 1)" class="triangle-float1"></path><path d="M442.189,811.569C486.616,809.323,520.911,778.167,544.311,740.335C569.364,699.832,592.329,649.665,567.45,609.055C543.155,569.399,488.512,569.526,442.189,573.642C404.146,577.023,371.901,596.821,350.343,628.348C324.757,665.764,300.149,711.132,320.462,751.654C342.183,794.985,393.78,814.017,442.189,811.569" fill="rgba(67, 110, 135, 1)" class="triangle-float3"></path><path d="M85.735,649.738C109.596,649.915,135.484,647.04,148.565,627.083C162.698,605.522,161.289,576.947,147.883,554.927C134.976,533.728,110.547,523.311,85.735,523.884C61.952,524.433,40.588,537.276,28.368,557.687C15.781,578.71,11.541,605.367,24.501,626.162C36.9,646.057,62.294,649.564,85.735,649.738" fill="rgba(67, 110, 135, 1)" class="triangle-float3"></path><path d="M861.627,776.463C891.881,775.984,919.696,760.41,935.127,734.383C950.881,707.812,952.22,675.286,937.813,647.962C922.35,618.636,894.745,593.468,861.627,594.984C830.194,596.423,811.748,626.826,796.635,654.425C782.339,680.533,769.992,710.502,783.984,736.775C798.627,764.272,830.478,776.956,861.627,776.463" fill="rgba(67, 110, 135, 1)" class="triangle-float3"></path><path d="M150.613,526.628C199.981,526.055,240.293,489.045,261.846,444.627C280.84,405.482,271.893,360.61,249.177,323.501C227.597,288.247,191.947,262.977,150.613,262.912C109.172,262.847,73.554,288.098,51.511,323.19C27.72,361.065,15.225,407.054,34.813,447.264C56.778,492.354,100.461,527.211,150.613,526.628" fill="rgba(67, 110, 135, 1)" class="triangle-float2"></path><path d="M1344.71,400.293C1399.884,400.426,1454.06,374.456,1479.956,325.737C1504.572,279.427,1487.75,225.626,1461.769,180.068C1435.474,133.96,1397.77,89.989,1344.71,88.582C1289.74,87.124,1243.503,125.727,1216.377,173.56C1189.653,220.685,1183.906,277.939,1210.591,325.086C1237.651,372.894,1289.775,400.16,1344.71,400.293" fill="rgba(67, 110, 135, 1)" class="triangle-float1"></path><path d="M1069.073,456.248C1089.757,456.56,1111.357,450.482,1121.987,432.736C1132.86,414.583,1128.133,392.485,1118.574,373.607C1107.737,352.205,1093.045,329.15,1069.073,328.239C1044.086,327.289,1023.558,347.106,1012.595,369.579C1002.896,389.46,1006.779,412.647,1018.856,431.18C1029.804,447.98,1049.023,455.945,1069.073,456.248" fill="rgba(67, 110, 135, 1)" class="triangle-float3"></path><path d="M982.198,470.316C1012.721,470.606,1043.373,460.185,1059.725,434.41C1077.225,406.825,1078.181,371.928,1062.951,343.027C1046.608,312.015,1017.253,287.307,982.198,287.29C947.119,287.273,917.37,311.762,901.31,342.949C886.556,371.599,889.907,405.755,907.183,432.959C923.234,458.233,952.259,470.031,982.198,470.316" fill="rgba(67, 110, 135, 1)" class="triangle-float2"></path><path d="M1219.566,371.298C1248.86,369.837,1265.73,341.398,1280.077,315.817C1293.981,291.025,1308.713,262.235,1294.559,237.584C1280.37,212.873,1248.061,210.584,1219.566,210.429C1190.688,210.271,1158.752,212.462,1143.143,236.758C1126.578,262.541,1132.479,295.775,1147.615,322.422C1162.964,349.443,1188.529,372.846,1219.566,371.298" fill="rgba(67, 110, 135, 1)" class="triangle-float3"></path></g><defs><mask id="SvgjsMask1540"><rect width="1495" height="760" fill="#ffffff"></rect></mask><linearGradient x1="87.71%" y1="124.18%" x2="12.29%" y2="-24.18%" gradientUnits="userSpaceOnUse" id="SvgjsLinearGradient1541"><stop stop-color="#0e2a47" offset="0"></stop><stop stop-color="rgba(59, 114, 131, 0.67)" offset="1"></stop></linearGradient><style>
                @keyframes float1 {
                    0%{transform: translate(0, 0)}
                    50%{transform: translate(-10px, 0)}
                    100%{transform: translate(0, 0)}
                }

                .triangle-float1 {
                    animation: float1 5s infinite;
                }

                @keyframes float2 {
                    0%{transform: translate(0, 0)}
                    50%{transform: translate(-5px, -5px)}
                    100%{transform: translate(0, 0)}
                }

                .triangle-float2 {
                    animation: float2 4s infinite;
                }

                @keyframes float3 {
                    0%{transform: translate(0, 0)}
                    50%{transform: translate(0, -10px)}
                    100%{transform: translate(0, 0)}
                }

                .triangle-float3 {
                    animation: float3 6s infinite;
                }
            </style></defs></svg>